<?xml version="1.0" encoding="iso-8859-1"?>
<!-- Generator: Adobe Illustrator 17.1.0, SVG Export Plug-In . SVG Version: 6.00 Build 0)  -->
<!DOCTYPE svg PUBLIC "-//W3C//DTD SVG 1.1//EN" "http://www.w3.org/Graphics/SVG/1.1/DTD/svg11.dtd">
<svg version="1.1" id="Capa_1" xmlns="http://www.w3.org/2000/svg" xmlns:xlink="http://www.w3.org/1999/xlink" x="0px" y="0px"
	 viewBox="0 0 405.493 405.493" style="enable-background:new 0 0 405.493 405.493;" xml:space="preserve">
<path d="M224.932,160.128c3.124,3.125,3.124,8.19,0,11.314c-1.563,1.562-3.61,2.343-5.657,2.343c-2.048,0-4.095-0.781-5.657-2.344
	l-52.878-52.879c-1.728-1.727-4.646-1.727-6.374,0l-37.538,37.538c-3.124,3.123-8.189,3.123-11.313,0
	c-3.125-3.125-3.125-8.189,0-11.314l37.539-37.539c7.997-7.991,21.005-7.992,28.999,0.001L224.932,160.128z M404.882,293.206
	c-1.238,2.989-4.155,4.938-7.391,4.938h-27.783v27.784c0,4.418-3.582,8-8,8h-27.781v27.781c0,4.418-3.582,8-8,8h-27.783
	l0.002,27.782c0,3.236-1.948,6.153-4.938,7.392c-0.989,0.41-2.029,0.609-3.06,0.609c-2.082,0-4.128-0.813-5.658-2.343
	l-42.476-42.474c-0.024-0.024-0.048-0.048-0.071-0.072L44.84,163.5c-0.007-0.008-0.015-0.016-0.022-0.022L2.345,121.005
	c-2.288-2.288-2.973-5.729-1.734-8.719s4.156-4.938,7.391-4.938l27.783,0.001V79.565c0-4.418,3.582-8,8-8h27.779V43.783
	c0-4.418,3.582-8,8-8h27.783V8c0-3.235,1.949-6.152,4.938-7.391c2.99-1.238,6.432-0.555,8.718,1.733l42.477,42.474l197.196,197.197
	c0.023,0.024,0.047,0.048,0.07,0.072l42.402,42.401C405.437,286.775,406.121,290.217,404.882,293.206z M50.474,146.507
	l96.035-96.033l-23.163-23.161v16.471c0,4.418-3.582,8-8,8H87.564v27.782c0,4.418-3.582,8-8,8H51.785v27.783
	c0,2.122-0.843,4.156-2.343,5.657c-1.5,1.5-3.535,2.343-5.657,2.343H27.316L50.474,146.507z M247.671,343.705l96.035-96.034
	L157.823,61.787L61.788,157.82L247.671,343.705z M378.178,282.145l-23.159-23.159l-96.035,96.034l23.16,23.159l-0.001-16.468
	c0-2.122,0.843-4.157,2.343-5.657c1.5-1.501,3.535-2.344,5.657-2.344h27.784v-27.781c0-4.418,3.582-8,8-8h27.781v-27.784
	c0-4.418,3.582-8,8-8H378.178z M248.654,183.85l-2.663-2.666c-3.124-3.127-8.189-3.129-11.313-0.007
	c-3.126,3.123-3.129,8.188-0.007,11.313l2.663,2.666c1.563,1.564,3.611,2.347,5.66,2.347c2.046,0,4.092-0.78,5.653-2.34
	C251.773,192.04,251.776,186.975,248.654,183.85z"/>
<g>
</g>
<g>
</g>
<g>
</g>
<g>
</g>
<g>
</g>
<g>
</g>
<g>
</g>
<g>
</g>
<g>
</g>
<g>
</g>
<g>
</g>
<g>
</g>
<g>
</g>
<g>
</g>
<g>
</g>
</svg>
