<?xml version="1.0" encoding="iso-8859-1"?>
<!-- Generator: Adobe Illustrator 19.0.0, SVG Export Plug-In . SVG Version: 6.00 Build 0)  -->
<svg version="1.1" id="Capa_1" xmlns="http://www.w3.org/2000/svg" xmlns:xlink="http://www.w3.org/1999/xlink" x="0px" y="0px"
	 viewBox="0 0 470 470" style="enable-background:new 0 0 470 470;" xml:space="preserve">
<g>
	<path d="M398.263,324.622h-5.113c2.346-4.178,3.692-8.985,3.713-14.102c0.065-16.389-13.039-29.775-29.242-29.84h-74.483
		c2.368-4.21,3.734-9.058,3.755-14.222c0.021-5.198-1.34-10.31-3.933-14.785c-2.076-3.584-6.663-4.805-10.25-2.729
		c-3.583,2.077-4.806,6.666-2.729,10.25c1.26,2.175,1.921,4.667,1.911,7.205c-0.032,7.886-6.452,14.279-14.324,14.282h-89.983
		c-4.13,0-7.483,3.339-7.5,7.47c-0.131,32.391-26.666,58.649-59.207,58.649c-0.091,0-0.187-0.001-0.275,0
		c-4.128,0-7.482,3.338-7.499,7.47c-0.017,4.142,3.328,7.513,7.47,7.53c0.103,0,0.203,0,0.306,0
		c38.251-0.001,69.886-28.987,73.8-66.119h182.715c7.769,0.031,14.501,6.8,14.469,14.78c-0.031,7.803-6.62,14.132-14.469,14.162
		h-139.46c-4.143,0-7.5,3.358-7.5,7.5s3.357,7.5,7.5,7.5h170.3c3.793,0.015,7.371,1.548,10.076,4.315
		c2.721,2.783,4.21,6.443,4.194,10.305c-0.032,7.882-6.453,14.271-14.357,14.271c-0.019,0-0.039,0-0.059,0h-170.33
		c-4.143,0-7.5,3.358-7.5,7.5s3.357,7.5,7.5,7.5h139.636c3.847,0.015,7.292,1.506,9.982,4.197c2.682,2.683,4.15,6.257,4.135,10.067
		c-0.015,3.794-1.507,7.334-4.199,9.969c-2.694,2.635-6.051,4.083-9.918,4.083c-0.011,0-0.006,0,0,0h-31.117h-16.456h-92.238
		c-4.143,0-7.5,3.358-7.5,7.5s3.357,7.5,7.5,7.5h92.208c7.9,0.032,14.303,6.499,14.271,14.415
		c-0.031,7.65-6.274,13.664-14.318,13.664c-1.285,0.001-162.208-0.085-162.666,0c-55.032-0.741-99.579-45.881-99.579-101.363
		c0-44.708,28.647-83.662,71.285-96.934c3.954-1.231,6.163-5.435,4.932-9.39c-1.23-3.955-5.438-6.164-9.39-4.932
		c-23.213,7.225-44.056,21.985-58.688,41.561c-15.138,20.25-23.139,44.35-23.139,69.695c0,31.129,12.018,60.367,33.838,82.33
		C98.2,457.88,125.991,470,157.076,470c0.478,0,162.622,0,162.666,0c16.385-0.001,29.253-12.657,29.318-28.697
		c0.021-5.253-1.346-10.195-3.753-14.475h21.816c0.042,0-0.041,0,0,0c7.782,0,15.16-2.967,20.675-8.361
		c5.586-5.464,8.68-12.791,8.711-20.631c0.021-5.1-1.255-9.999-3.672-14.323h5.219c0.04,0,0.08,0,0.12,0
		c16.116-0.001,29.261-13.079,29.326-29.211c0.031-7.828-2.976-15.233-8.468-20.851C413.5,327.789,406.134,324.653,398.263,324.622z
		"/>
	<path d="M71.913,146.502h5.249c-2.417,4.324-3.692,9.223-3.672,14.323c0.063,15.988,13.219,28.993,29.417,28.992h21.785
		c-2.407,4.281-3.773,9.223-3.753,14.476c0.065,16.036,12.944,28.597,29.41,28.596c0,0,151.583,0.039,161.205,0
		c31.089,0,60.248-12.101,82.106-34.073c21.823-21.937,33.842-51.159,33.842-82.283c0-64.214-52.241-116.456-116.45-116.456
		L202.32,0c-16.172,0.065-29.276,13.275-29.212,29.447c0.021,5.156,1.387,10.008,3.765,14.221H102.35
		C86.177,43.733,73.072,57.12,73.138,73.509c0.021,5.109,1.374,9.919,3.729,14.101h-5.16c-7.841,0.032-15.207,3.167-20.742,8.83
		c-5.492,5.618-8.499,13.023-8.468,20.851C42.563,133.399,55.719,146.503,71.913,146.502z M61.691,106.925
		c2.705-2.767,6.283-4.3,10.046-4.315h170.33c4.143,0,7.5-3.358,7.5-7.5s-3.357-7.5-7.5-7.5H102.533
		c-7.832-0.034-14.364-6.386-14.395-14.161c-0.031-7.981,6.504-14.749,14.242-14.781h99.939l0.117,0c0.009,0,0.081,0,0.109,0h89.87
		c4.143,0,7.5-3.358,7.5-7.5s-3.357-7.5-7.5-7.5h-89.89h-0.001h-0.146c-0.003,0-0.006,0-0.009,0
		c-7.834-0.034-14.231-6.44-14.263-14.281c-0.031-7.901,6.371-14.355,14.237-14.387l108.702,0.077
		c55.942,0,101.455,45.513,101.455,101.456c0,55.888-45.285,101.356-100.979,101.356c-9.632,0.039-161.263,0-161.264,0
		c-8,0-14.29-5.998-14.321-13.656c-0.031-7.917,6.371-14.384,14.271-14.416h92.208c4.143,0,7.5-3.358,7.5-7.5s-3.357-7.5-7.5-7.5
		l-139.604,0c-8.001,0-14.293-6.172-14.324-14.052c-0.016-3.809,1.453-7.384,4.135-10.066c2.69-2.691,6.061-4.181,9.908-4.197
		h139.71c4.143,0,7.5-3.358,7.5-7.5s-3.357-7.5-7.5-7.5l-170.421,0c-7.867,0-14.293-6.402-14.325-14.271
		C57.481,113.368,58.971,109.708,61.691,106.925z"/>
</g>
<g>
</g>
<g>
</g>
<g>
</g>
<g>
</g>
<g>
</g>
<g>
</g>
<g>
</g>
<g>
</g>
<g>
</g>
<g>
</g>
<g>
</g>
<g>
</g>
<g>
</g>
<g>
</g>
<g>
</g>
</svg>
